# xmcd
#
# Track frame offsets: 
#        150
#        18716
#        34943
#        53985
#        78877
#        99005
#        136001
#        159197
#        182090
#        200783
#        228692
#        253862
#        275385
#        289261
#        314399
#
# Disc length: 4775 seconds
#
# Revision: 0
# Processed by: cddbd v1.5.2PL0 Copyright (c) Steve Scherf et al.
# Submitted via: ExactAudioCopy v1.1
#
DISCID=cf12a50f
DTITLE=Various Artist - Akella Presents - Extra Edition - Ufa-City Bl
DTITLE=ues!  CD1
DYEAR=2017
DGENRE=Blues
TTITLE0=Boogie Band - You Look My Baby
TTITLE1=Outrider - Crossroad Blues
TTITLE2=Funky House Band - Fever
TTITLE3=Boogie Band - Sensitive Kind
TTITLE4=Uai-71 - Boom Boom
TTITLE5=Rhythm and Blues Trio - Route 66
TTITLE6=Boogie Band - I Got The Blues
TTITLE7=Outrider - Run Buddy Run
TTITLE8=Rinat Bilalov - Wind Cries Mary
TTITLE9=Boogie Band - Red House
TTITLE10=Funky House Band - Gee Baby, Ain't I Good To You
TTITLE11=Wings - Well She's Walking
TTITLE12=Alina Ibragimova - Would You Dance To My Music
TTITLE13=Boogie Band - Day Dream
TTITLE14=Rhythm and Blues Trio - When I First Meet You Baby
EXTD=
EXTT0=
EXTT1=
EXTT2=
EXTT3=
EXTT4=
EXTT5=
EXTT6=
EXTT7=
EXTT8=
EXTT9=
EXTT10=
EXTT11=
EXTT12=
EXTT13=
EXTT14=
PLAYORDER=
